<?xml version="1.0" encoding="utf-8"?>
<!-- Generator: Adobe Illustrator 21.1.0, SVG Export Plug-In . SVG Version: 6.00 Build 0)  -->
<svg version="1.1" id="Layer_1" xmlns="http://www.w3.org/2000/svg" xmlns:xlink="http://www.w3.org/1999/xlink" x="0px" y="0px"
	 viewBox="0 0 100 100" style="enable-background:new 0 0 100 100;" xml:space="preserve">
<style type="text/css">
	.st0{fill:#E6E6E6;}
	.st1{fill:#CCCCCC;}
</style>
<g>
	<g>
		<circle class="st0" cx="50" cy="49" r="25"/>
	</g>
	<circle class="st1" cx="53.5" cy="62.5" r="6.5"/>
	<circle class="st1" cx="65" cy="63" r="4"/>
	<circle class="st1" cx="58" cy="56" r="2"/>
	<circle class="st1" cx="62.5" cy="68.5" r="1.5"/>
	<circle class="st1" cx="39" cy="64" r="1"/>
	<circle class="st1" cx="36.5" cy="66.5" r="1.5"/>
	<circle class="st1" cx="65" cy="59" r="1"/>
	<circle class="st1" cx="71.5" cy="46.5" r="1.5"/>
	<circle class="st1" cx="46" cy="55" r="2"/>
	<circle class="st1" cx="72" cy="44" r="1"/>
	<circle class="st1" cx="61" cy="44" r="1"/>
	<ellipse transform="matrix(0.9517 -0.307 0.307 0.9517 -15.8927 16.9727)" class="st1" cx="46" cy="59" rx="2" ry="2"/>
	<circle class="st1" cx="44" cy="52" r="3"/>
	<circle class="st1" cx="69.5" cy="43.5" r="1.5"/>
	<circle class="st1" cx="40" cy="48" r="1"/>
	<circle class="st1" cx="69.5" cy="41.5" r="0.5"/>
	<circle class="st1" cx="37.5" cy="62.5" r="0.5"/>
	<circle class="st1" cx="62.5" cy="58.5" r="0.5"/>
	<circle class="st1" cx="60.5" cy="68.5" r="0.5"/>
	<circle class="st1" cx="43.5" cy="55.5" r="0.5"/>
	<circle class="st1" cx="37.5" cy="50.5" r="0.5"/>
	<circle class="st1" cx="39.5" cy="46.5" r="0.5"/>
	<circle class="st1" cx="72.5" cy="47.5" r="0.5"/>
	<circle class="st1" cx="59.5" cy="58.5" r="0.5"/>
	<circle class="st1" cx="69.5" cy="61.5" r="0.5"/>
	<circle class="st1" cx="66" cy="46" r="3"/>
	<ellipse transform="matrix(0.9517 -0.307 0.307 0.9517 -13.3538 13.1125)" class="st1" cx="35" cy="49" rx="2" ry="2"/>
</g>
<circle class="st1" cx="34.5" cy="51.5" r="1.5"/>
</svg>
