<svg id="Layer_1" data-name="Layer 1" xmlns="http://www.w3.org/2000/svg" xmlns:xlink="http://www.w3.org/1999/xlink" viewBox="0 0 100 99.27"><defs><style>.cls-1{fill:url(#radial-gradient);}.cls-2{fill:#fcee21;}</style><radialGradient id="radial-gradient" cx="50" cy="51.95" r="49.82" gradientTransform="matrix(1, 0, 0, -1, 0, 102)" gradientUnits="userSpaceOnUse"><stop offset="0" stop-color="#ffde17" stop-opacity="0.7"/><stop offset="1" stop-color="#fff200" stop-opacity="0"/></radialGradient></defs><title>sun</title><path id="sunburst" class="cls-1" d="M50,99.69a49.94,49.94,0,0,1-8.62-.75l7.41-42.47a7.14,7.14,0,0,0,2.44,0L58.7,98.92A50.85,50.85,0,0,1,50,99.69ZM25,93A50.2,50.2,0,0,1,11.75,81.87l33-27.76a7,7,0,0,0,1.86,1.57Zm50,0L53.43,55.66A6.91,6.91,0,0,0,55.3,54.1l33,27.72A50,50,0,0,1,75,93ZM3,66.86a50,50,0,0,1-3-17.1l43.11-.08A6.69,6.69,0,0,0,43.52,52Zm94-.08L56.49,52a6.78,6.78,0,0,0,.4-2.31v-.16H100v.09A49.73,49.73,0,0,1,97,66.78ZM43.51,47.32,3,32.65a49.7,49.7,0,0,1,8.66-15L44.7,45.26A6.58,6.58,0,0,0,43.51,47.32Zm13,0a7,7,0,0,0-1.21-2.07L88.18,17.4a50,50,0,0,1,8.74,15Zm-9.92-3.59L24.88,6.44a49.78,49.78,0,0,1,16.34-6l7.55,42.44A6.65,6.65,0,0,0,46.55,43.71Zm6.86,0a6.27,6.27,0,0,0-2.2-.79L58.52.41a49.64,49.64,0,0,1,16.37,5.9Z" transform="translate(0 -0.41)"/><circle class="cls-2" cx="50" cy="48.59" r="25"/></svg>